<svg width="22" height="24" viewBox="0 0 22 24" fill="none" xmlns="http://www.w3.org/2000/svg">
<g id="hum" clip-path="url(#clip0_42_449)" filter="url(#filter0_di_42_449)">
<path id="Vector" d="M11 2.84221L6.4625 7.37971C5.56518 8.27713 4.95412 9.42047 4.70658 10.6652C4.45905 11.9099 4.58616 13.2 5.07184 14.3725C5.55752 15.5449 6.37996 16.547 7.43516 17.2521C8.49036 17.9571 9.73093 18.3334 11 18.3334C12.2691 18.3334 13.5096 17.9571 14.5648 17.2521C15.62 16.547 16.4425 15.5449 16.9282 14.3725C17.4138 13.2 17.541 11.9099 17.2934 10.6652C17.0459 9.42047 16.4348 8.27713 15.5375 7.37971L11 2.84221ZM11 0.249878L16.8337 6.08355C17.9874 7.23733 18.7732 8.70734 19.0915 10.3077C19.4098 11.908 19.2464 13.5668 18.622 15.0743C17.9976 16.5818 16.9401 17.8703 15.5834 18.7768C14.2267 19.6833 12.6317 20.1671 11 20.1671C9.36831 20.1671 7.77326 19.6833 6.41656 18.7768C5.05986 17.8703 4.00243 16.5818 3.37801 15.0743C2.75358 13.5668 2.5902 11.908 2.90852 10.3077C3.22684 8.70734 4.01256 7.23733 5.16634 6.08355L11 0.249878Z" fill="white"/>
</g>
<defs>
<filter id="filter0_di_42_449" x="-2.26241" y="0" width="24.2624" height="25.0165" filterUnits="userSpaceOnUse" color-interpolation-filters="sRGB">
<feFlood flood-opacity="0" result="BackgroundImageFix"/>
<feColorMatrix in="SourceAlpha" type="matrix" values="0 0 0 0 0 0 0 0 0 0 0 0 0 0 0 0 0 0 127 0" result="hardAlpha"/>
<feOffset dx="-1.50827" dy="2.26241"/>
<feGaussianBlur stdDeviation="0.377069"/>
<feColorMatrix type="matrix" values="0 0 0 0 0 0 0 0 0 0 0 0 0 0 0 0 0 0 0.1 0"/>
<feBlend mode="normal" in2="BackgroundImageFix" result="effect1_dropShadow_42_449"/>
<feBlend mode="normal" in="SourceGraphic" in2="effect1_dropShadow_42_449" result="shape"/>
<feColorMatrix in="SourceAlpha" type="matrix" values="0 0 0 0 0 0 0 0 0 0 0 0 0 0 0 0 0 0 127 0" result="hardAlpha"/>
<feOffset dx="-0.754137" dy="0.754137"/>
<feGaussianBlur stdDeviation="0.754137"/>
<feComposite in2="hardAlpha" operator="arithmetic" k2="-1" k3="1"/>
<feColorMatrix type="matrix" values="0 0 0 0 1 0 0 0 0 1 0 0 0 0 1 0 0 0 0.25 0"/>
<feBlend mode="normal" in2="shape" result="effect2_innerShadow_42_449"/>
</filter>
<clipPath id="clip0_42_449">
<rect width="22" height="22" fill="white"/>
</clipPath>
</defs>
</svg>
