<svg width="135" height="106" viewBox="0 0 135 106" fill="none" xmlns="http://www.w3.org/2000/svg">
<g id="WeatherIcon - 2-39">
<g id="Group Sun">
<path id="Ellipse 1" d="M37.7886 60.4513C48.7531 60.4513 57.6416 51.5038 57.6416 40.4667C57.6416 29.4295 48.7531 20.4821 37.7886 20.4821C26.824 20.4821 17.9355 29.4295 17.9355 40.4667C17.9355 51.5038 26.824 60.4513 37.7886 60.4513Z" fill="#FA9E42"/>
<g id="Ellipse 2" filter="url(#filter0_f_42_469)">
<path d="M36.3553 37.6248C42.9535 34.1148 46.644 28.1422 44.5982 24.2848C42.5525 20.4273 35.5453 20.1456 28.9471 23.6556C22.3489 27.1656 18.6584 33.1381 20.7041 36.9956C22.7498 40.8531 29.7571 41.1348 36.3553 37.6248Z" fill="#F8E36F"/>
</g>
</g>
<g id="Group Cloud 2">
<g id="Group" filter="url(#filter1_d_42_469)">
<g id="Union shadow">
<path id="Vector" d="M76.8605 73.3707H38.2767C34.5337 73.3679 30.937 71.915 28.2394 69.3162C25.5419 66.7175 23.9526 63.1744 23.8044 59.4286C23.6561 55.6828 24.9604 52.0248 27.4441 49.2204C29.9278 46.416 33.3985 44.6825 37.1294 44.383C37.6615 40.6202 39.358 37.1192 41.9804 34.3725C44.6027 31.6258 48.0188 29.7716 51.7482 29.0708C55.4776 28.37 59.3325 28.8579 62.7706 30.4658C66.2087 32.0737 69.0569 34.7206 70.9146 38.0343C74.3219 36.853 78.0034 36.715 81.4893 37.6379C84.9752 38.5607 88.1077 40.5026 90.4871 43.2159C92.8666 45.9292 94.3851 49.2908 94.849 52.872C95.313 56.4533 94.7013 60.0917 93.092 63.3233C92.1476 66.243 90.304 68.788 87.8257 70.5931C85.3475 72.3981 82.362 73.3706 79.2977 73.3707H76.8605Z" fill="url(#paint0_linear_42_469)"/>
<path id="Vector_2" d="M79.2975 73.1687C80.8534 73.1687 82.3832 72.9199 83.8443 72.4291C85.2573 71.9546 86.5838 71.2621 87.787 70.3709C88.9764 69.49 90.0191 68.4347 90.8859 67.2344C91.7636 66.0192 92.4413 64.6824 92.9001 63.2611L92.9048 63.2465L92.9116 63.2328C93.5217 62.0119 93.9915 60.7204 94.308 59.3942C94.6336 58.0295 94.7987 56.6193 94.7987 55.2027C94.7987 53.9836 94.6761 52.7654 94.4343 51.5818C94.1986 50.4283 93.8469 49.2938 93.3891 48.2097C92.9395 47.1451 92.3831 46.1184 91.7352 45.158C91.0935 44.2066 90.3565 43.3119 89.5447 42.4989C88.7329 41.6858 87.8396 40.9477 86.8897 40.305C85.9307 39.6561 84.9056 39.0988 83.8427 38.6485C82.7602 38.19 81.6274 37.8378 80.4758 37.6018C79.294 37.3596 78.0776 37.2368 76.8604 37.2368C74.845 37.2368 72.8667 37.569 70.9805 38.2241L70.8213 38.2794L70.7388 38.1323C69.2038 35.3987 66.971 33.103 64.2818 31.4934C62.9218 30.6793 61.4607 30.0503 59.9391 29.6237C58.3692 29.1836 56.7387 28.9604 55.0926 28.9604C52.8786 28.9604 50.7174 29.3595 48.669 30.1466C46.6901 30.9069 44.8748 32.0053 43.2735 33.4111C41.6814 34.8089 40.3601 36.4581 39.3465 38.313C38.3079 40.2134 37.6291 42.2648 37.3289 44.4101L37.3064 44.5707L37.145 44.5833C35.3395 44.7249 33.6023 45.201 31.9818 45.9984C30.4072 46.7733 29.0011 47.8213 27.8026 49.1134C25.34 51.7685 23.9838 55.2277 23.9838 58.8539C23.9838 60.7865 24.3616 62.6611 25.1069 64.4258C25.4651 65.2739 25.9084 66.092 26.4246 66.8573C26.936 67.6153 27.5232 68.3281 28.17 68.9759C28.8169 69.6238 29.5286 70.2119 30.2855 70.724C31.0495 71.241 31.8663 71.6851 32.7132 72.0438C34.4751 72.7902 36.3469 73.1687 38.2765 73.1687H76.8604H79.2975ZM79.2975 73.3705H76.8604H38.2765C30.2716 73.3705 23.7822 66.8712 23.7822 58.8539C23.7822 51.2232 29.6605 44.9676 37.1293 44.3821C38.3647 35.5528 45.9364 28.7585 55.0926 28.7585C61.8854 28.7585 67.806 32.4977 70.9144 38.0334C72.7772 37.3864 74.7777 37.0349 76.8604 37.0349C86.8787 37.0349 95.0003 45.169 95.0003 55.2027C95.0003 58.1215 94.3131 60.8794 93.0918 63.3232C91.2099 69.1534 85.7453 73.3705 79.2975 73.3705Z" fill="white" fill-opacity="0.5"/>
</g>
</g>
</g>
</g>
<defs>
<filter id="filter0_f_42_469" x="0.139648" y="1.19678" width="65.0234" height="58.8867" filterUnits="userSpaceOnUse" color-interpolation-filters="sRGB">
<feFlood flood-opacity="0" result="BackgroundImageFix"/>
<feBlend mode="normal" in="SourceGraphic" in2="BackgroundImageFix" result="shape"/>
<feGaussianBlur stdDeviation="10" result="effect1_foregroundBlur_42_469"/>
</filter>
<filter id="filter1_d_42_469" x="3.78223" y="0.758545" width="131.218" height="104.612" filterUnits="userSpaceOnUse" color-interpolation-filters="sRGB">
<feFlood flood-opacity="0" result="BackgroundImageFix"/>
<feColorMatrix in="SourceAlpha" type="matrix" values="0 0 0 0 0 0 0 0 0 0 0 0 0 0 0 0 0 0 127 0" result="hardAlpha"/>
<feOffset dx="10" dy="2"/>
<feGaussianBlur stdDeviation="15"/>
<feColorMatrix type="matrix" values="0 0 0 0 0.258824 0 0 0 0 0.627451 0 0 0 0 0.941176 0 0 0 0.1 0"/>
<feBlend mode="normal" in2="BackgroundImageFix" result="effect1_dropShadow_42_469"/>
<feBlend mode="normal" in="SourceGraphic" in2="effect1_dropShadow_42_469" result="shape"/>
</filter>
<linearGradient id="paint0_linear_42_469" x1="59.3964" y1="28.7592" x2="80.139" y2="78.832" gradientUnits="userSpaceOnUse">
<stop stop-color="white" stop-opacity="0.604"/>
<stop offset="1" stop-color="white" stop-opacity="0.2"/>
</linearGradient>
</defs>
</svg>
