<svg width="116" height="96" viewBox="0 0 116 96" fill="none" xmlns="http://www.w3.org/2000/svg">
<g id="WeatherIcon - 2-45">
<g id="Group Wind">
<path id="Path 6" d="M37.3838 59.6259C37.3838 59.6259 59.1104 59.8341 63.8144 58.468C68.5184 57.1018 68.5123 50.0115 63.8144 48.2638C59.1164 46.516 57.5108 52.7633 57.5108 52.7633" stroke="#713FFD" stroke-linecap="round"/>
<path id="Path 7" d="M30.2559 66.9188C30.2559 66.9188 46.2007 65.4782 53.23 66.9188C60.2593 68.3595 58.021 72.4923 54.6897 72.6812C51.3583 72.8701 48.2842 70.6811 48.2842 70.6811" stroke="#713FFD" stroke-linecap="round"/>
<path id="Line 1" d="M64.1924 66.9084H70.5318" stroke="#713FFD" stroke-linecap="round"/>
</g>
<g id="Group Cloud 2">
<g id="Group" filter="url(#filter0_d_233_2)">
<g id="Union shadow">
<path id="Vector" d="M61.7357 63.0252H31.3966C28.4535 63.0229 25.6253 61.8823 23.5041 59.842C21.383 57.8017 20.1333 55.02 20.0168 52.0791C19.9002 49.1383 20.9258 46.2664 22.8788 44.0646C24.8318 41.8628 27.5608 40.5019 30.4945 40.2667C30.9129 37.3126 32.2469 34.5639 34.3089 32.4074C36.3709 30.251 39.057 28.7952 41.9895 28.245C44.922 27.6949 47.9532 28.0779 50.6566 29.3402C53.36 30.6026 55.5997 32.6808 57.0604 35.2824C59.7396 34.3549 62.6344 34.2465 65.3755 34.9711C68.1165 35.6956 70.5796 37.2203 72.4506 39.3505C74.3216 41.4807 75.5156 44.1199 75.8804 46.9315C76.2453 49.7432 75.7643 52.5998 74.4989 55.1369C73.7563 57.4292 72.3066 59.4272 70.3579 60.8444C68.4092 62.2616 66.0617 63.0251 63.6521 63.0252H61.7357Z" fill="url(#paint0_linear_233_2)"/>
<path id="Vector_2" d="M63.6527 62.8667C64.8761 62.8667 66.0789 62.6713 67.2279 62.286C68.3389 61.9135 69.382 61.3698 70.3281 60.6701C71.2634 59.9785 72.0832 59.15 72.7649 58.2076C73.455 57.2536 73.9878 56.204 74.3486 55.0882L74.3523 55.0767L74.3577 55.066C74.8374 54.1074 75.2068 53.0935 75.4557 52.0522C75.7117 50.9808 75.8415 49.8736 75.8415 48.7615C75.8415 47.8044 75.7451 46.8479 75.5549 45.9186C75.3696 45.0131 75.0931 44.1224 74.7331 43.2712C74.3796 42.4354 73.9421 41.6293 73.4327 40.8753C72.928 40.1284 72.3485 39.426 71.7102 38.7876C71.0718 38.1493 70.3695 37.5698 69.6225 37.0652C68.8685 36.5557 68.0624 36.1182 67.2266 35.7647C66.3755 35.4047 65.4847 35.1282 64.5792 34.9429C63.6499 34.7527 62.6934 34.6563 61.7363 34.6563C60.1515 34.6563 58.596 34.9171 57.1128 35.4315L56.9877 35.4749L56.9227 35.3594C55.7158 33.2132 53.9601 31.4109 51.8455 30.1471C50.7761 29.508 49.6272 29.0141 48.4308 28.6792C47.1964 28.3337 45.9142 28.1585 44.6199 28.1585C42.879 28.1585 41.1796 28.4718 39.5689 29.0898C38.0129 29.6867 36.5855 30.549 35.3263 31.6528C34.0744 32.7502 33.0355 34.045 32.2384 35.5012C31.4218 36.9933 30.888 38.6038 30.652 40.2881L30.6343 40.4142L30.5074 40.4241C29.0877 40.5353 27.7217 40.9091 26.4475 41.5351C25.2093 42.1435 24.1037 42.9663 23.1613 43.9808C21.2249 46.0652 20.1585 48.7811 20.1585 51.6281C20.1585 53.1453 20.4556 54.6171 21.0416 56.0026C21.3233 56.6685 21.6719 57.3107 22.0778 57.9115C22.4798 58.5067 22.9416 59.0663 23.4502 59.5749C23.9588 60.0835 24.5185 60.5453 25.1136 60.9474C25.7144 61.3533 26.3567 61.7019 27.0226 61.9835C28.408 62.5695 29.8798 62.8667 31.3971 62.8667H61.7363H63.6527ZM63.6527 63.0252H61.7363H31.3971C25.1027 63.0252 20 57.9225 20 51.6281C20 45.6371 24.6222 40.7258 30.495 40.2661C31.4665 33.3342 37.4202 28 44.6199 28C49.9612 28 54.6167 30.9356 57.0609 35.2817C58.5256 34.7737 60.0987 34.4978 61.7363 34.4978C69.6139 34.4978 76 40.8839 76 48.7615C76 51.0531 75.4597 53.2183 74.4994 55.1369C73.0196 59.7143 68.7227 63.0252 63.6527 63.0252Z" fill="white" fill-opacity="0.5"/>
</g>
</g>
</g>
</g>
<defs>
<filter id="filter0_d_233_2" x="0" y="0" width="116" height="95.0251" filterUnits="userSpaceOnUse" color-interpolation-filters="sRGB">
<feFlood flood-opacity="0" result="BackgroundImageFix"/>
<feColorMatrix in="SourceAlpha" type="matrix" values="0 0 0 0 0 0 0 0 0 0 0 0 0 0 0 0 0 0 127 0" result="hardAlpha"/>
<feOffset dx="10" dy="2"/>
<feGaussianBlur stdDeviation="15"/>
<feColorMatrix type="matrix" values="0 0 0 0 0.443137 0 0 0 0 0.247059 0 0 0 0 0.992157 0 0 0 0.1 0"/>
<feBlend mode="normal" in2="BackgroundImageFix" result="effect1_dropShadow_233_2"/>
<feBlend mode="normal" in="SourceGraphic" in2="effect1_dropShadow_233_2" result="shape"/>
</filter>
<linearGradient id="paint0_linear_233_2" x1="48.0034" y1="28.0004" x2="64.2708" y2="67.3306" gradientUnits="userSpaceOnUse">
<stop stop-color="white" stop-opacity="0.604"/>
<stop offset="1" stop-color="white" stop-opacity="0.2"/>
</linearGradient>
</defs>
</svg>
